Coordinates
version=1
nRows=4
nColumns=63
inDegrees=yes

Units are S.I. units (second, meters, Newtons, ...)
If the header above contains a line with 'inDegrees', this indicates whether rotational values are in degrees (yes) or radians (no).

endheader
time	pelvis_tilt	pelvis_list	pelvis_rotation	pelvis_tx	pelvis_ty	pelvis_tz	hip_flexion_r	hip_adduction_r	hip_rotation_r	knee_angle_r	knee_angle_r_beta	ankle_angle_r	subtalar_angle_r	mtp_angle_r	hip_flexion_l	hip_adduction_l	hip_rotation_l	knee_angle_l	knee_angle_l_beta	ankle_angle_l	subtalar_angle_l	mtp_angle_l	L5_S1_Flex_Ext	L5_S1_Lat_Bending	L5_S1_axial_rotation	L4_L5_Flex_Ext	L4_L5_Lat_Bending	L4_L5_axial_rotation	L3_L4_Flex_Ext	L3_L4_Lat_Bending	L3_L4_axial_rotation	L2_L3_Flex_Ext	L2_L3_Lat_Bending	L2_L3_axial_rotation	L1_L2_Flex_Ext	L1_L2_Lat_Bending	L1_L2_axial_rotation	L1_T12_Flex_Ext	L1_T12_Lat_Bending	L1_T12_axial_rotation	Abs_r3	Abs_r2	Abs_r1	Abs_t1	Abs_t2	neck_flexion	neck_bending	neck_rotation	arm_flex_r	arm_add_r	arm_rot_r	elbow_flex_r	pro_sup_r	wrist_flex_r	wrist_dev_r	arm_flex_l	arm_add_l	arm_rot_l	elbow_flex_l	pro_sup_l	wrist_flex_l	wrist_dev_l
      3.28333333	      1.47072263	     -5.31206942	     87.95727009	      0.24426020	      1.04991296	      0.43151766	     -3.22779207	     -0.76262927	     10.60415035	      9.84540824	      0.17183479	     31.53137159	     -4.28532988	      0.00000000	     -9.23054663	     -0.26366386	      4.13355558	      0.69640118	      0.01215449	     28.26240972	     -1.99406127	      0.00000000	      0.05563080	      0.15862697	      0.23907274	      0.10331195	      0.21097387	      0.25401479	      0.09139584	      0.38568561	      0.25401479	      0.06358044	      0.38568561	      0.20918865	      0.05165876	      0.32347211	      0.19424660	      0.03178744	      0.24571317	      0.17930456	      0.39736522	      1.79441997	      1.32965087	      0.00000000	      0.00000000	     27.62889326	     -0.39444946	      5.76076918	     21.41655564	    -21.17634162	    120.34263033	      6.53697479	     17.21881546	      8.28194964	     -9.62422689	      9.32710564	    -29.37390078	    119.33922669	      1.49257669	      7.23027165	     12.84671568	    -12.97905708
      3.30000000	      1.56250334	     -5.14648390	     88.59623758	      0.24389368	      1.05034582	      0.43093978	     -3.64575122	     -0.64647077	      9.67141343	      9.56930772	      0.16701593	     31.30168739	     -3.88350283	      0.00000000	     -9.41966636	     -0.46143476	      6.17207823	      0.70346311	      0.01227775	     27.75492907	     -4.20284937	      0.00000000	      0.05238052	      0.16608995	      0.25266638	      0.09727587	      0.22089964	      0.26845802	      0.08605596	      0.40383111	      0.26845802	      0.05986570	      0.40383111	      0.22108308	      0.04864056	      0.33869063	      0.20529143	      0.02993023	      0.25727334	      0.18949978	      0.37414885	      1.87884275	      1.40525458	      0.00000000	      0.00000000	     27.63830877	     -0.52485326	      5.09897416	     21.17222961	    -19.09666543	    134.35804084	      6.03458855	     11.52177269	      8.05631141	    -10.71826582	     10.90911233	    -26.69000935	    130.85212070	      1.21783396	      8.40936624	     11.26678873	    -12.60133386
      3.31666667	      1.53739372	     -4.95900294	     89.22270852	      0.24341552	      1.05065934	      0.43048726	     -4.10031071	     -0.63896270	      8.88537064	      9.27131621	      0.16181499	     31.01232677	     -3.68493448	      0.00000000	     -9.61065664	     -0.54020554	      6.77092466	      0.73373954	      0.01280617	     27.66386117	     -4.38424370	      0.00000000	      0.05081702	      0.15984629	      0.28413602	      0.09437229	      0.21259557	      0.30189452	      0.08348728	      0.38865028	      0.30189452	      0.05807877	      0.38865028	      0.24861901	      0.04718868	      0.32595856	      0.23086051	      0.02903684	      0.24760191	      0.21310201	      0.36298089	      1.80821324	      1.58027929	      0.00000000	      0.00000000	     27.62989726	     -0.72121272	      4.13347589	     20.76678063	    -17.14287777	    140.04080472	      6.19351526	     15.41370021	      6.43940969	    -11.77117455	     12.65063000	    -23.79728637	    138.46821016	      1.51940066	     15.50111099	      8.09544878	    -12.55395481
      3.33333333	      1.58917826	     -4.79915323	     89.95525312	      0.24267553	      1.05084968	      0.43016739	     -4.49429669	     -0.60500679	      7.13325440	      9.03778724	      0.15773914	     30.98372580	     -2.19399576	      0.00000000	     -9.77409674	     -0.69795378	      9.21912390	      0.72428695	      0.01264119	     26.86159659	     -7.14753133	      0.00000000	      0.05104089	      0.16578299	      0.26730403	      0.09478803	      0.22049137	      0.28401053	      0.08385507	      0.40308476	      0.28401053	      0.05833463	      0.40308476	      0.23389103	      0.04739657	      0.33806467	      0.21718452	      0.02916476	      0.25679785	      0.20047802	      0.36457996	      1.87537031	      1.48666483	      0.00000000	      0.00000000	     27.61320109	     -1.06433728	      3.45619355	     20.34587183	    -14.61981440	    157.11847162	      5.11379519	      8.22366723	      5.88608779	    -12.49691862	     14.35791651	    -20.77266746	    145.21133750	      2.48739999	     21.45224976	      4.38190222	    -11.80563850
